<svg viewBox="0 0 73 12" xmlns="http://www.w3.org/2000/svg" height="19">
  <g transform="matrix(1, 0, 0, 1, -67.109001, -191.874924)">
    <path fill-rule="evenodd" d="M 85.639 201.905 L 85.619 201.905 C 85.628 201.905 85.634 201.915 85.643 201.916 L 85.649 201.916 L 85.639 201.906 Z M 85.643 201.916 C 85.55 201.917 85.316 201.966 85.069 201.966 C 84.289 201.966 84.019 201.606 84.019 201.136 L 84.019 198.005 L 85.609 198.005 C 85.699 198.005 85.769 197.925 85.769 197.815 L 85.769 196.115 C 85.769 196.025 85.689 195.945 85.609 195.945 L 84.019 195.945 L 84.019 193.835 C 84.019 193.755 83.969 193.705 83.879 193.705 L 81.719 193.705 C 81.629 193.705 81.579 193.755 81.579 193.835 L 81.579 196.005 C 81.579 196.005 80.489 196.275 80.419 196.285 C 80.339 196.305 80.289 196.375 80.289 196.455 L 80.289 197.815 C 80.289 197.925 80.369 198.005 80.459 198.005 L 81.569 198.005 L 81.569 201.285 C 81.569 203.725 83.269 203.975 84.429 203.975 C 84.959 203.975 85.599 203.805 85.699 203.755 C 85.759 203.735 85.789 203.665 85.789 203.595 L 85.789 202.095 C 85.792 202.008 85.73 201.931 85.643 201.915 Z M 109.339 199.715 C 109.339 197.905 108.609 197.665 107.839 197.745 C 107.239 197.785 106.759 198.085 106.759 198.085 L 106.759 201.605 C 106.759 201.605 107.249 201.945 107.979 201.965 C 109.009 201.995 109.339 201.625 109.339 199.715 Z M 111.769 199.555 C 111.769 202.985 110.659 203.965 108.719 203.965 C 107.079 203.965 106.199 203.135 106.199 203.135 C 106.199 203.135 106.159 203.595 106.109 203.655 C 106.079 203.715 106.029 203.735 105.969 203.735 L 104.489 203.735 C 104.389 203.735 104.299 203.655 104.299 203.565 L 104.319 192.455 C 104.319 192.365 104.399 192.285 104.489 192.285 L 106.619 192.285 C 106.709 192.285 106.789 192.365 106.789 192.455 L 106.789 196.225 C 106.789 196.225 107.609 195.695 108.809 195.695 L 108.799 195.675 C 109.999 195.675 111.769 196.125 111.769 199.555 Z M 103.049 195.945 L 100.949 195.945 C 100.839 195.945 100.779 196.025 100.779 196.135 L 100.779 201.575 C 100.779 201.575 100.229 201.965 99.479 201.965 C 98.729 201.965 98.509 201.625 98.509 200.875 L 98.509 196.125 C 98.509 196.035 98.429 195.955 98.339 195.955 L 96.199 195.955 C 96.109 195.955 96.029 196.035 96.029 196.125 L 96.029 201.235 C 96.029 203.435 97.259 203.985 98.949 203.985 C 100.339 203.985 101.469 203.215 101.469 203.215 C 101.469 203.215 101.519 203.605 101.549 203.665 C 101.569 203.715 101.639 203.755 101.709 203.755 L 103.049 203.755 C 103.159 203.755 103.219 203.675 103.219 203.585 L 103.239 196.115 C 103.239 196.025 103.159 195.945 103.049 195.945 Z M 79.349 195.935 L 77.219 195.935 C 77.129 195.935 77.049 196.025 77.049 196.135 L 77.049 203.475 C 77.049 203.675 77.179 203.745 77.349 203.745 L 79.269 203.745 C 79.469 203.745 79.519 203.655 79.519 203.475 L 79.519 196.105 C 79.519 196.015 79.439 195.935 79.349 195.935 Z M 78.299 192.555 C 77.529 192.555 76.919 193.165 76.919 193.935 C 76.919 194.705 77.529 195.315 78.299 195.315 C 79.049 195.315 79.659 194.705 79.659 193.935 C 79.659 193.165 79.049 192.555 78.299 192.555 Z M 94.789 192.305 L 92.679 192.305 C 92.589 192.305 92.509 192.385 92.509 192.475 L 92.509 196.565 L 89.199 196.565 L 89.199 192.475 C 89.199 192.385 89.119 192.305 89.029 192.305 L 86.899 192.305 C 86.809 192.305 86.729 192.385 86.729 192.475 L 86.729 203.585 C 86.729 203.675 86.819 203.755 86.899 203.755 L 89.029 203.755 C 89.119 203.755 89.199 203.675 89.199 203.585 L 89.199 198.835 L 92.509 198.835 L 92.489 203.585 C 92.489 203.675 92.569 203.755 92.659 203.755 L 94.789 203.755 C 94.879 203.755 94.959 203.675 94.959 203.585 L 94.959 192.475 C 94.959 192.385 94.879 192.305 94.789 192.305 Z M 75.919 197.225 L 75.919 202.965 C 75.919 203.005 75.909 203.075 75.859 203.095 C 75.859 203.095 74.609 203.985 72.549 203.985 C 70.059 203.985 67.109 203.205 67.109 198.065 C 67.109 192.925 69.689 191.865 72.209 191.875 C 74.389 191.875 75.269 192.365 75.409 192.455 C 75.449 192.505 75.469 192.545 75.469 192.595 L 75.049 194.375 C 75.049 194.465 74.959 194.575 74.849 194.545 C 74.489 194.435 73.949 194.215 72.679 194.215 C 71.209 194.215 69.629 194.635 69.629 197.945 C 69.629 201.255 71.129 201.645 72.209 201.645 C 73.129 201.645 73.459 201.535 73.459 201.535 L 73.459 199.235 L 71.989 199.235 C 71.879 199.235 71.799 199.155 71.799 199.065 L 71.799 197.225 C 71.799 197.135 71.879 197.055 71.989 197.055 L 75.729 197.055 C 75.839 197.055 75.919 197.135 75.919 197.225 Z"></path>
  </g>
  <path fill-rule="evenodd" d="M 52.948 6.73 L 55.398 6.73 L 55.398 10.75 C 54.848 11.02 53.758 11.09 52.868 11.09 C 50.308 11.09 49.398 8.89 49.398 6.04 C 49.398 3.19 50.308 0.98 52.878 0.98 C 54.158 0.98 54.938 1.21 56.158 1.71 L 56.158 0.66 C 55.518 0.33 54.498 0 52.878 0 C 49.378 0 48.248 2.69 48.248 6.03 C 48.248 9.37 49.358 12.06 52.878 12.06 C 54.518 12.06 55.688 11.79 56.468 11.42 L 56.468 5.73 L 52.948 5.73 L 52.948 6.73 Z M 59.338 10.45 L 59.338 4.06 L 58.288 4.06 L 58.288 10.34 C 58.288 11.59 58.868 12.06 60.008 12.06 L 60.008 11.17 C 59.528 11.17 59.338 11.01 59.338 10.47 L 59.338 10.45 Z M 59.588 1.73 C 59.588 1.29 59.258 0.95 58.808 0.95 C 58.358 0.95 58.038 1.29 58.038 1.73 C 58.038 2.17 58.368 2.51 58.808 2.51 C 59.248 2.51 59.588 2.17 59.588 1.73 Z M 63.928 7.42 C 62.428 7.29 62.148 6.94 62.148 6.25 C 62.148 5.48 62.478 4.91 64.028 4.91 C 65.078 4.91 65.688 5.07 66.298 5.27 L 66.298 4.33 C 65.608 4.03 64.778 3.94 64.048 3.94 C 61.848 3.94 61.128 5.14 61.128 6.25 C 61.128 7.33 61.598 8.13 63.858 8.33 C 65.408 8.46 65.628 8.96 65.628 9.67 C 65.628 10.4 65.188 11.09 63.568 11.09 C 62.458 11.09 61.708 10.9 61.238 10.73 L 61.238 11.67 C 61.738 11.87 62.818 12.06 63.568 12.06 C 65.948 12.06 66.708 10.86 66.708 9.65 C 66.708 8.37 66.178 7.62 63.958 7.42 L 63.928 7.42 Z M 72.508 4.95 L 72.508 4.09 L 70.088 4.09 L 70.088 1.59 L 69.008 1.9 L 69.008 4.01 L 67.448 4.45 L 67.448 4.93 L 69.008 4.93 L 69.008 9.93 C 69.008 11.46 70.198 12.06 71.508 12.06 C 71.698 12.06 72.028 12.04 72.198 12.01 L 72.198 11.12 C 72.008 11.15 71.788 11.15 71.588 11.15 C 70.618 11.15 70.088 10.76 70.088 9.81 L 70.088 4.94 L 72.508 4.94 L 72.508 4.96 L 72.508 4.95 Z"></path>
</svg>
